<svg width="32" height="32" viewBox="0 0 32 32" fill="none" xmlns="http://www.w3.org/2000/svg">
<path d="M21.3662 18.4615C21.4647 17.6492 21.5385 16.8369 21.5385 16C21.5385 15.163 21.4647 14.3507 21.3662 13.5384H25.5262C25.7232 14.3261 25.8462 15.1507 25.8462 16C25.8462 16.8492 25.7232 17.6738 25.5262 18.4615M19.1878 25.3046C19.9262 23.9384 20.4924 22.4615 20.8862 20.923H24.517C23.3246 22.9763 21.4328 24.5316 19.1878 25.3046ZM18.8801 18.4615H13.1201C12.997 17.6492 12.9232 16.8369 12.9232 16C12.9232 15.163 12.997 14.3384 13.1201 13.5384H18.8801C18.9908 14.3384 19.077 15.163 19.077 16C19.077 16.8369 18.9908 17.6492 18.8801 18.4615ZM16.0001 25.7969C14.9785 24.32 14.1539 22.683 13.6493 20.923H18.3508C17.8462 22.683 17.0216 24.32 16.0001 25.7969ZM11.077 11.0769H7.48315C8.66328 9.01806 10.5537 7.46024 12.8001 6.69534C12.0616 8.06149 11.5078 9.53841 11.077 11.0769ZM7.48315 20.923H11.077C11.5078 22.4615 12.0616 23.9384 12.8001 25.3046C10.5584 24.5312 8.67065 22.9756 7.48315 20.923ZM6.47392 18.4615C6.277 17.6738 6.15392 16.8492 6.15392 16C6.15392 15.1507 6.277 14.3261 6.47392 13.5384H10.6339C10.5355 14.3507 10.4616 15.163 10.4616 16C10.4616 16.8369 10.5355 17.6492 10.6339 18.4615M16.0001 6.19072C17.0216 7.66765 17.8462 9.31688 18.3508 11.0769H13.6493C14.1539 9.31688 14.9785 7.66765 16.0001 6.19072ZM24.517 11.0769H20.8862C20.501 9.55252 19.9306 8.08106 19.1878 6.69534C21.4524 7.47072 23.3355 9.0338 24.517 11.0769ZM16.0001 3.69226C9.19392 3.69226 3.69238 9.23072 3.69238 16C3.69238 19.2642 4.98908 22.3947 7.29722 24.7028C8.4401 25.8457 9.79689 26.7523 11.2901 27.3708C12.7834 27.9893 14.3838 28.3076 16.0001 28.3076C19.2643 28.3076 22.3948 27.0109 24.7029 24.7028C27.0111 22.3947 28.3078 19.2642 28.3078 16C28.3078 14.3837 27.9894 12.7832 27.3709 11.29C26.7524 9.79676 25.8458 8.43997 24.7029 7.2971C23.5601 6.15423 22.2033 5.24765 20.71 4.62913C19.2168 4.01061 17.6163 3.69226 16.0001 3.69226Z" fill="#6172F3"/>
</svg>
