<svg width="87" height="24" viewBox="0 0 87 24" fill="none" xmlns="http://www.w3.org/2000/svg">
<path d="M1.14773 18V6.36364H5.51136C6.4053 6.36364 7.1553 6.5303 7.76136 6.86364C8.37121 7.19697 8.83144 7.6553 9.14205 8.23864C9.45644 8.81818 9.61364 9.47727 9.61364 10.2159C9.61364 10.9621 9.45644 11.625 9.14205 12.2045C8.82765 12.7841 8.36364 13.2405 7.75 13.5739C7.13636 13.9034 6.38068 14.0682 5.48295 14.0682H2.59091V12.3352H5.19886C5.72159 12.3352 6.14962 12.2443 6.48295 12.0625C6.81629 11.8807 7.0625 11.6307 7.22159 11.3125C7.38447 10.9943 7.46591 10.6288 7.46591 10.2159C7.46591 9.80303 7.38447 9.43939 7.22159 9.125C7.0625 8.81061 6.81439 8.56629 6.47727 8.39205C6.14394 8.21402 5.71402 8.125 5.1875 8.125H3.25568V18H1.14773ZM11.4446 18V6.36364H19.0128V8.13068H13.5526V11.2898H18.6207V13.0568H13.5526V16.233H19.0582V18H11.4446ZM21.1634 18V6.36364H25.527C26.4209 6.36364 27.1709 6.51894 27.777 6.82955C28.3868 7.14015 28.8471 7.57576 29.1577 8.13636C29.4721 8.69318 29.6293 9.3428 29.6293 10.0852C29.6293 10.8314 29.4702 11.4792 29.152 12.0284C28.8376 12.5739 28.3736 12.9962 27.7599 13.2955C27.1463 13.5909 26.3925 13.7386 25.4986 13.7386H22.3906V11.9886H25.2145C25.7372 11.9886 26.1652 11.9167 26.4986 11.7727C26.8319 11.625 27.0781 11.411 27.2372 11.1307C27.4001 10.8466 27.4815 10.4981 27.4815 10.0852C27.4815 9.67235 27.4001 9.32008 27.2372 9.02841C27.0743 8.73295 26.8262 8.50947 26.4929 8.35795C26.1596 8.20265 25.7296 8.125 25.2031 8.125H23.2713V18H21.1634ZM27.1747 12.7273L30.0554 18H27.7031L24.8736 12.7273H27.1747ZM41.1321 6.36364V18H39.2571L33.7741 10.0739H33.6776V18H31.5696V6.36364H33.456L38.9332 14.2955H39.0355V6.36364H41.1321Z" fill="white"/>
<path d="M50.4716 9.5625C50.4186 9.06629 50.1951 8.67992 49.8011 8.40341C49.411 8.12689 48.9034 7.98864 48.2784 7.98864C47.839 7.98864 47.4621 8.05492 47.1477 8.1875C46.8333 8.32008 46.5928 8.5 46.4261 8.72727C46.2595 8.95455 46.1742 9.21402 46.1705 9.50568C46.1705 9.74811 46.2254 9.95833 46.3352 10.1364C46.4489 10.3144 46.6023 10.4659 46.7955 10.5909C46.9886 10.7121 47.2027 10.8144 47.4375 10.8977C47.6723 10.9811 47.9091 11.0511 48.1477 11.108L49.2386 11.3807C49.678 11.483 50.1004 11.6212 50.5057 11.7955C50.9148 11.9697 51.2803 12.1894 51.6023 12.4545C51.928 12.7197 52.1856 13.0398 52.375 13.4148C52.5644 13.7898 52.6591 14.2292 52.6591 14.733C52.6591 15.4148 52.4848 16.0152 52.1364 16.5341C51.7879 17.0492 51.2841 17.4527 50.625 17.7443C49.9697 18.0322 49.1761 18.1761 48.2443 18.1761C47.339 18.1761 46.553 18.036 45.8864 17.7557C45.2235 17.4754 44.7045 17.0663 44.3295 16.5284C43.9583 15.9905 43.7576 15.3352 43.7273 14.5625H45.8011C45.8314 14.9678 45.9564 15.3049 46.1761 15.5739C46.3958 15.8428 46.6818 16.0436 47.0341 16.1761C47.3902 16.3087 47.7879 16.375 48.2273 16.375C48.6856 16.375 49.0871 16.3068 49.4318 16.1705C49.7803 16.0303 50.053 15.8371 50.25 15.5909C50.447 15.3409 50.5473 15.0492 50.5511 14.7159C50.5473 14.4129 50.4583 14.1629 50.2841 13.9659C50.1098 13.7652 49.8655 13.5985 49.5511 13.4659C49.2405 13.3295 48.8769 13.2083 48.4602 13.1023L47.1364 12.7614C46.178 12.5152 45.4205 12.142 44.8636 11.642C44.3106 11.1383 44.0341 10.4697 44.0341 9.63636C44.0341 8.95076 44.2197 8.35038 44.5909 7.83523C44.9659 7.32008 45.4754 6.92045 46.1193 6.63636C46.7633 6.34848 47.4924 6.20455 48.3068 6.20455C49.1326 6.20455 49.8561 6.34848 50.4773 6.63636C51.1023 6.92045 51.5928 7.31629 51.9489 7.82386C52.3049 8.32765 52.4886 8.9072 52.5 9.5625H50.4716ZM58.8054 9.27273V10.8636H53.7884V9.27273H58.8054ZM55.027 7.18182H57.0838V15.375C57.0838 15.6515 57.1255 15.8636 57.2088 16.0114C57.2959 16.1553 57.4096 16.2538 57.5497 16.3068C57.6899 16.3598 57.8452 16.3864 58.0156 16.3864C58.1444 16.3864 58.2618 16.3769 58.3679 16.358C58.4777 16.339 58.5611 16.322 58.6179 16.3068L58.9645 17.9148C58.8546 17.9527 58.6974 17.9943 58.4929 18.0398C58.2921 18.0852 58.0459 18.1117 57.7543 18.1193C57.2391 18.1345 56.7751 18.0568 56.3622 17.8864C55.9493 17.7121 55.6217 17.4432 55.3793 17.0795C55.1406 16.7159 55.0232 16.2614 55.027 15.7159V7.18182ZM63.0369 18.1761C62.4839 18.1761 61.9858 18.0777 61.5426 17.8807C61.1032 17.6799 60.7547 17.3845 60.4972 16.9943C60.2434 16.6042 60.1165 16.1231 60.1165 15.5511C60.1165 15.0587 60.2074 14.6515 60.3892 14.3295C60.571 14.0076 60.8191 13.75 61.1335 13.5568C61.4479 13.3636 61.8021 13.2178 62.196 13.1193C62.5938 13.017 63.0047 12.9432 63.429 12.8977C63.9403 12.8447 64.3551 12.7973 64.6733 12.7557C64.9915 12.7102 65.2225 12.642 65.3665 12.5511C65.5142 12.4564 65.5881 12.3106 65.5881 12.1136V12.0795C65.5881 11.6515 65.4612 11.3201 65.2074 11.0852C64.9536 10.8504 64.5881 10.733 64.1108 10.733C63.607 10.733 63.2074 10.8428 62.9119 11.0625C62.6203 11.2822 62.4233 11.5417 62.321 11.8409L60.4006 11.5682C60.5521 11.0379 60.8021 10.5947 61.1506 10.2386C61.4991 9.87879 61.9252 9.60985 62.429 9.43182C62.9328 9.25 63.4896 9.15909 64.0994 9.15909C64.5199 9.15909 64.9384 9.20833 65.3551 9.30682C65.7718 9.4053 66.1525 9.56818 66.4972 9.79545C66.8419 10.0189 67.1184 10.3239 67.3267 10.7102C67.5388 11.0966 67.6449 11.5795 67.6449 12.1591V18H65.6676V16.8011H65.5994C65.4744 17.0436 65.2983 17.2708 65.071 17.483C64.8475 17.6913 64.5653 17.8598 64.2244 17.9886C63.8873 18.1136 63.4915 18.1761 63.0369 18.1761ZM63.571 16.6648C63.9839 16.6648 64.3419 16.5833 64.6449 16.4205C64.9479 16.2538 65.1809 16.0341 65.3438 15.7614C65.5104 15.4886 65.5938 15.1913 65.5938 14.8693V13.8409C65.5294 13.8939 65.4195 13.9432 65.2642 13.9886C65.1127 14.0341 64.9422 14.0739 64.7528 14.108C64.5634 14.142 64.3759 14.1723 64.1903 14.1989C64.0047 14.2254 63.8438 14.2481 63.7074 14.267C63.4006 14.3087 63.1259 14.3769 62.8835 14.4716C62.6411 14.5663 62.4498 14.6989 62.3097 14.8693C62.1695 15.036 62.0994 15.2519 62.0994 15.517C62.0994 15.8958 62.2377 16.1818 62.5142 16.375C62.7907 16.5682 63.143 16.6648 63.571 16.6648ZM73.5199 18.1705C72.6487 18.1705 71.9006 17.9792 71.2756 17.5966C70.6544 17.214 70.1752 16.6856 69.8381 16.0114C69.5047 15.3333 69.3381 14.553 69.3381 13.6705C69.3381 12.7841 69.5085 12.0019 69.8494 11.3239C70.1903 10.642 70.6714 10.1117 71.2926 9.73295C71.9176 9.35038 72.6563 9.15909 73.5085 9.15909C74.2169 9.15909 74.8438 9.28977 75.3892 9.55114C75.9384 9.80871 76.3759 10.1742 76.7017 10.6477C77.0275 11.1174 77.2131 11.6667 77.2585 12.2955H75.2926C75.2131 11.875 75.0237 11.5246 74.7244 11.2443C74.429 10.9602 74.0331 10.8182 73.5369 10.8182C73.1165 10.8182 72.7472 10.9318 72.429 11.1591C72.1108 11.3826 71.8627 11.7045 71.6847 12.125C71.5104 12.5455 71.4233 13.0492 71.4233 13.6364C71.4233 14.2311 71.5104 14.7424 71.6847 15.1705C71.8589 15.5947 72.1032 15.9223 72.4176 16.1534C72.7358 16.3807 73.1089 16.4943 73.5369 16.4943C73.84 16.4943 74.1108 16.4375 74.3494 16.3239C74.5919 16.2064 74.7945 16.0379 74.9574 15.8182C75.1203 15.5985 75.232 15.3314 75.2926 15.017H77.2585C77.2093 15.6345 77.0275 16.1818 76.7131 16.6591C76.3987 17.1326 75.9706 17.5038 75.429 17.7727C74.8873 18.0379 74.2509 18.1705 73.5199 18.1705ZM80.8224 15.2614L80.8168 12.7784H81.1463L84.2827 9.27273H86.6861L82.8281 13.5682H82.402L80.8224 15.2614ZM78.9474 18V6.36364H81.0043V18H78.9474ZM84.4247 18L81.5838 14.0284L82.9702 12.5795L86.8849 18H84.4247Z" fill="#6172F3"/>
</svg>
